<svg xmlns="http://www.w3.org/2000/svg" width="38" height="48" fill="none"><mask id="a" width="38" height="48" x="0" y="0" maskUnits="userSpaceOnUse" style="mask-type:alpha"><circle cx="4" cy="4" r="4" fill="#02324F" transform="matrix(-1 0 0 1 37.999 0)"/><circle cx="13.999" cy="34" r="4" fill="#02324F"/><circle cx="4" cy="4" r="4" fill="#02324F" transform="matrix(-1 0 0 1 28 10)"/><circle cx="23.999" cy="44" r="4" fill="#02324F"/><circle cx="4" cy="4" r="4" fill="#02324F" transform="matrix(-1 0 0 1 17.998 19.998)"/><circle cx="4" cy="4" r="4" fill="#02324F" transform="matrix(-1 0 0 1 28 0)"/><circle cx="23.999" cy="34" r="4" fill="#02324F"/><circle cx="4" cy="4" r="4" fill="#02324F" transform="matrix(-1 0 0 1 17.998 10)"/><circle cx="33.998" cy="44" r="4" fill="#02324F"/><circle cx="4" cy="4" r="4" fill="#02324F" transform="matrix(-1 0 0 1 8 19.998)"/></mask><g mask="url(#a)"><path fill="url(#b)" d="M0 0h61.999v63.998H0z" transform="matrix(-1 0 0 1 51.998 -8)"/></g><defs><linearGradient id="b" x1="45" x2="20" y1="26.999" y2="26.999" gradientUnits="userSpaceOnUse"><stop stop-color="#030712" stop-opacity=".3"/><stop offset="1" stop-color="#030712"/></linearGradient></defs></svg>